<?xml version="1.0" encoding="UTF-8"?><svg xmlns="http://www.w3.org/2000/svg" xmlns:xlink="http://www.w3.org/1999/xlink" viewBox="0 0 169.88 62"><defs><style>.cls-1{fill:#00357f;}.cls-2{fill:#0072ab;}.cls-3{fill:url(#linear-gradient-2);}.cls-3,.cls-4,.cls-5,.cls-6,.cls-7{mix-blend-mode:multiply;}.cls-4{fill:url(#linear-gradient-3);}.cls-5{fill:url(#linear-gradient-4);}.cls-6{fill:url(#linear-gradient-5);}.cls-8{isolation:isolate;}.cls-9{fill:#00496c;}.cls-7{fill:url(#linear-gradient);}</style><linearGradient id="linear-gradient" x1="25.54" y1="-5.54" x2="25.54" y2="44.06" gradientUnits="userSpaceOnUse"><stop offset=".01" stop-color="#fff"/><stop offset=".27" stop-color="#abbbc8"/><stop offset=".53" stop-color="#628098"/><stop offset=".73" stop-color="#2d5576"/><stop offset=".89" stop-color="#0c3a61"/><stop offset=".97" stop-color="#003159"/></linearGradient><linearGradient id="linear-gradient-2" x1="64.9" y1="-5.54" x2="64.9" y2="44.06" xlink:href="#linear-gradient"/><linearGradient id="linear-gradient-3" x1="108.77" y1="-5.54" x2="108.77" y2="44.06" xlink:href="#linear-gradient"/><linearGradient id="linear-gradient-4" x1="149.37" y1="-5.54" x2="149.37" y2="44.06" xlink:href="#linear-gradient"/><linearGradient id="linear-gradient-5" x1="96.51" y1="14.78" x2="124.02" y2="42.29" gradientUnits="userSpaceOnUse"><stop offset=".12" stop-color="#fff"/><stop offset=".23" stop-color="#abb6c5"/><stop offset=".34" stop-color="#627692"/><stop offset=".44" stop-color="#2d486e"/><stop offset=".51" stop-color="#0c2b57"/><stop offset=".54" stop-color="#00214f"/></linearGradient></defs><g class="cls-8"><g id="_レイヤー_2"><g id="Main"><path class="cls-1" d="M48.17,6.22C45.12,2.63,38.69.02,31.95,0,25.22.02,14.4,2.97,4.24,12.32l-4.24,3.93c8.14-4.39,10.45-5.65,15.65-7.08L6.57,41.82h18.84c3.85,0,7.51-.83,10.93-2.48,3.42-1.66,6.36-4.07,8.77-7.18,2.41-3.12,4.12-6.77,5.14-10.91.38-1.53.63-2.99.75-4.37.39-4.33-.53-7.95-2.82-10.66ZM24.2,7.39h.03s.42-.08,1.17-.15c.75-.08,1.8-.15,3-.15,3.34-.02,7.76.63,10.03,3.16,2.25,2.5,2.64,4.47,2.46,6.75-.11,1.2-.41,2.5-.76,3.94-.98,3.99-2.71,7.04-5.18,9.28-2.48,2.24-5.24,3.32-8.51,3.33h-7.13l4.18-15.25-5.09-9.87c1.74-.42,3.67-.77,5.79-1.03h.02Z"/><path class="cls-1" d="M80.48.95h-17.97l4.16,4.59-22.16,36.28h10.38l5.89-9.94h13.4l1.01,9.94h10.09L80.48.95ZM72.7,13.74l.98,10.04h-8.39c4.19-7.11,6.59-11.21,7.25-12.38l.16,2.34Z"/><path class="cls-1" d="M127.15,4.45l-.75.7.75-.7c-2.23-2.4-5.84-3.5-10.63-3.5h-9.16s-14.63,0-14.63,0l4.3,4.75-8.88,36.12h10.14l4.63-18.82,5.28,4.71,2.18.42h.09c3.05,0,5.86-.56,8.4-1.71,2.53-1.14,4.69-2.77,6.43-4.88,1.73-2.09,2.93-4.49,3.58-7.14.22-.92.38-1.8.45-2.64.27-2.94-.46-5.46-2.19-7.32ZM106.3,9.24h7.57c2.01,0,3.36.39,4.1.99.74.61,1.06,1.4.96,2.77-.03.37-.1.78-.21,1.22-.48,1.92-1.34,3.25-2.59,4.2-1.27.95-2.88,1.45-4.96,1.45h-7.48l2.62-10.64Z"/><path class="cls-1" d="M156.27,28.21c-.62.94-1.29,1.78-2.02,2.5-2.27,2.2-4.89,3.26-8.13,3.28-3.11-.03-5.03-1.07-6.24-3.23-.85-1.55-1.2-3.54-.98-6.06.09-1.03.28-2.15.56-3.35.98-4.1,2.62-7.18,4.88-9.36,2.27-2.17,4.89-3.23,8.14-3.24,3.2.02,5.14,1.05,6.31,3.12.47.84.77,1.84.92,2.99l.1.78h10.07v-1.08c-.04-3.31-.85-6.18-2.47-8.51-2.65-3.82-7.18-5.69-13.23-5.68-6.05,0-11.35,1.83-15.67,5.5-4.33,3.67-7.25,8.78-8.77,15.19-.39,1.63-.65,3.19-.78,4.67-.38,4.32.37,7.98,2.34,10.86,2.62,3.87,7.09,5.78,13.06,5.78h.07c3.92,0,7.6-.85,10.98-2.56,3.38-1.71,6.27-4.19,8.61-7.39.77-1.05,1.46-2.16,2.09-3.32l.75-1.39h-10.25l-.33.5Z"/><path class="cls-7" d="M48.17,6.22C45.12,2.63,38.69.02,31.95,0,25.22.02,14.4,2.97,4.24,12.32l-4.24,3.93c8.14-4.39,10.45-5.65,15.65-7.08L6.57,41.82h18.84c3.85,0,7.51-.83,10.93-2.48,3.42-1.66,6.36-4.07,8.77-7.18,2.41-3.12,4.12-6.77,5.14-10.91.38-1.53.63-2.99.75-4.37.39-4.33-.53-7.95-2.82-10.66ZM24.2,7.39h.03s.42-.08,1.17-.15c.75-.08,1.8-.15,3-.15,3.34-.02,7.76.63,10.03,3.16,2.25,2.5,2.64,4.47,2.46,6.75-.11,1.2-.41,2.5-.76,3.94-.98,3.99-2.71,7.04-5.18,9.28-2.48,2.24-5.24,3.32-8.51,3.33h-7.13l4.18-15.25-5.09-9.87c1.74-.42,3.67-.77,5.79-1.03h.02Z"/><path class="cls-3" d="M80.48.95h-17.97l4.16,4.59-22.16,36.28h10.38l5.89-9.94h13.4l1.01,9.94h10.09L80.48.95ZM72.7,13.74l.98,10.04h-8.39c4.19-7.11,6.59-11.21,7.25-12.38l.16,2.34Z"/><path class="cls-4" d="M127.15,4.45l-.75.7.75-.7c-2.23-2.4-5.84-3.5-10.63-3.5h-9.16s-14.63,0-14.63,0l4.3,4.75-8.88,36.12h10.14l4.63-18.82,5.28,4.71,2.18.42h.09c3.05,0,5.86-.56,8.4-1.71,2.53-1.14,4.69-2.77,6.43-4.88,1.73-2.09,2.93-4.49,3.58-7.14.22-.92.38-1.8.45-2.64.27-2.94-.46-5.46-2.19-7.32ZM106.3,9.24h7.57c2.01,0,3.36.39,4.1.99.74.61,1.06,1.4.96,2.77-.03.37-.1.78-.21,1.22-.48,1.92-1.34,3.25-2.59,4.2-1.27.95-2.88,1.45-4.96,1.45h-7.48l2.62-10.64Z"/><path class="cls-5" d="M156.27,28.21c-.62.94-1.29,1.78-2.02,2.5-2.27,2.2-4.89,3.26-8.13,3.28-3.11-.03-5.03-1.07-6.24-3.23-.85-1.55-1.2-3.54-.98-6.06.09-1.03.28-2.15.56-3.35.98-4.1,2.62-7.18,4.88-9.36,2.27-2.17,4.89-3.23,8.14-3.24,3.2.02,5.14,1.05,6.31,3.12.47.84.77,1.84.92,2.99l.1.78h10.07v-1.08c-.04-3.31-.85-6.18-2.47-8.51-2.65-3.82-7.18-5.69-13.23-5.68-6.05,0-11.35,1.83-15.67,5.5-4.33,3.67-7.25,8.78-8.77,15.19-.39,1.63-.65,3.19-.78,4.67-.38,4.32.37,7.98,2.34,10.86,2.62,3.87,7.09,5.78,13.06,5.78h.07c3.92,0,7.6-.85,10.98-2.56,3.38-1.71,6.27-4.19,8.61-7.39.77-1.05,1.46-2.16,2.09-3.32l.75-1.39h-10.25l-.33.5Z"/><path class="cls-2" d="M93.3,15.31l-3.89-1.05s5.96,4.19,7.77,5.25c15.76,9.24,17.43,21.68,17.3,22.3h12.73s-1.66-17.87-33.91-26.51Z"/><path class="cls-6" d="M93.3,15.31l-3.89-1.05s5.96,4.19,7.77,5.25c16.26,9.57,17.43,21.68,17.3,22.3h12.73s-1.66-17.87-33.91-26.51Z"/><path class="cls-9" d="M14.87,55.4c-.27-.15-.75-.35-1.43-.6l-2.66-.94c-.44-.15-.71-.26-.82-.31-.35-.18-.52-.42-.52-.69,0-.31.15-.58.45-.81.3-.25.72-.37,1.25-.37.78,0,1.3.26,1.55.77.11.25.18.61.2,1.09h3.25c-.03-.67-.1-1.18-.2-1.53-.29-.94-.88-1.65-1.77-2.12-.76-.41-1.72-.61-2.88-.61-.94,0-1.79.14-2.56.42-.85.3-1.49.78-1.9,1.45-.36.58-.54,1.19-.54,1.85,0,.53.12,1.02.37,1.46.22.4.54.73.94.98.28.2.72.4,1.33.62l3.11,1.09c.45.16.77.31.96.48.2.18.3.39.3.65,0,.36-.16.66-.47.89-.34.27-.84.4-1.51.4-.73,0-1.27-.16-1.61-.48-.18-.16-.31-.4-.39-.71-.06-.21-.1-.57-.12-1.08h-3.23c.02.61.06,1.06.12,1.35.13.77.43,1.4.89,1.89.92.97,2.37,1.46,4.34,1.46s3.35-.49,4.24-1.46c.61-.67.91-1.49.91-2.48,0-.58-.12-1.08-.35-1.49-.27-.45-.68-.84-1.24-1.17ZM43.29,52.47c.58-.45,1.29-.68,2.14-.68.4,0,.8.06,1.18.18.36.12.64.29.84.51.16.15.27.33.34.53.07.2.12.48.17.82h3.13c-.06-.71-.15-1.25-.29-1.62-.32-.95-1-1.7-2.02-2.23-.92-.47-2.01-.71-3.28-.71s-2.51.26-3.55.77c-1,.49-1.77,1.24-2.32,2.23-.59,1.06-.89,2.21-.89,3.45s.31,2.42.93,3.46c.65,1.09,1.59,1.85,2.82,2.29.98.34,2.01.51,3.11.51.86,0,1.69-.09,2.49-.28.66-.16,1.24-.37,1.75-.63.31-.16.7-.43,1.14-.8v-5.48h-7.12l1.29,2.42h2.93v1.62c-.3.2-.56.33-.77.4-.51.16-1.06.24-1.63.24-1.19,0-2.13-.39-2.81-1.17-.57-.66-.86-1.53-.86-2.62,0-1.48.43-2.56,1.29-3.23ZM58.35,49.5l1.41,1.44h0l-4.5,10.84h3.28l.89-2.4h5.28l.89,2.4h3.28l-5.1-12.28h-5.44ZM60.34,56.97l1.73-4.59,1.73,4.59h-3.47ZM81.29,58.48l-2.79-8.97h-4.78v12.28h2.96v-9.4l2.93,9.4h3.35l2.93-9.4v9.4h2.96v-12.28h-4.77l-2.78,8.97ZM95.05,61.78h3.18v-12.28h-3.18v12.28ZM113,54.16h-5.38v-4.66h-3.14v12.28h3.14v-5.08h5.38v5.08h3.13v-12.28h-3.13v4.66ZM124.03,49.5l1.41,1.44-4.5,10.84h3.28l.89-2.4h5.28l.89,2.4h3.28l-5.09-12.28h-5.44ZM126.03,56.97l1.73-4.59,1.73,4.59h-3.46ZM163.5,49.5h-5.44l1.41,1.44-4.5,10.84h3.28l.89-2.4h5.28l.89,2.4h3.28l-5.1-12.28ZM160.05,56.97l1.73-4.59,1.73,4.59h-3.46ZM24.47,49.5l1.41,1.44-4.5,10.84h3.28l.89-2.4h5.28l.89,2.4h3.28l-5.1-12.28h-5.44ZM26.46,56.97l1.73-4.59,1.73,4.59h-3.46ZM146.68,56.98c.3-.04.62-.11.94-.2.35-.13,2.6-1.18,2.6-3.8,0-.75-.19-1.39-.57-1.91-.39-.55-.98-.97-1.75-1.25-.58-.22-1.4-.32-2.46-.32h-7.55l1.42,1.44v10.84h3.08v-4.72h1.37c1.37,1.12,2.71,2.68,3.19,4.72h3.83s-.87-2.76-4.09-4.81ZM144.91,54.64h-2.52v-2.72h2.59c.71,0,1.2.09,1.48.26.37.23.56.59.56,1.08,0,.44-.13.76-.4.97-.35.28-.91.42-1.7.42Z"/></g></g></g></svg>